<?xml version="1.0" encoding="UTF-8"?>
<svg version="1.1" xmlns="http://www.w3.org/2000/svg" width="512" height="512">
<path d="M0 0 C0.78733249 -0.00350607 1.57466498 -0.00701215 2.38585603 -0.01062447 C5.02819321 -0.01993982 7.67031005 -0.0150148 10.3126564 -0.01015663 C12.224617 -0.01389282 14.13657608 -0.01849422 16.04853272 -0.02388728 C21.30601822 -0.03613656 26.56344017 -0.03585453 31.82093668 -0.03349853 C37.48979711 -0.03309085 43.15863704 -0.04412485 48.82748795 -0.05361366 C59.93531498 -0.0702353 71.04312079 -0.07572374 82.15095922 -0.07683842 C91.17914776 -0.07778836 100.20732928 -0.08189594 109.23551559 -0.08823967 C130.66104944 -0.10298834 152.08657636 -0.11528906 173.51211548 -0.11424255 C174.5399138 -0.11419582 174.5399138 -0.11419582 175.58847572 -0.11414814 C179.06133 -0.11398192 182.53418428 -0.11378384 186.00703856 -0.11357872 C186.69675656 -0.11353883 187.38647455 -0.11349894 188.09709309 -0.11345784 C189.49187127 -0.11337697 190.88664946 -0.11329337 192.28142764 -0.11320706 C213.9797099 -0.11198167 235.67792963 -0.1269924 257.376194 -0.15435219 C281.75581637 -0.18508031 306.13538724 -0.2022589 330.51503205 -0.20042574 C343.42283991 -0.19976146 356.33057727 -0.20527051 369.23836899 -0.22678185 C380.22828888 -0.24497942 391.21810631 -0.24935265 402.20803472 -0.235763 C407.81532483 -0.22922617 413.4224183 -0.22914214 419.02968979 -0.2464695 C424.16440101 -0.26217338 429.29875922 -0.25936382 434.4334617 -0.24190123 C436.28943879 -0.23882544 438.14544205 -0.24248548 440.00138828 -0.25362138 C450.99654815 -0.31521597 459.9163077 0.13340839 469.29318619 6.44476891 C476.5083483 13.82391198 480.28898062 21.16018033 480.30045509 31.59218121 C480.30396117 32.31227835 480.30746724 33.03237549 480.31107956 33.77429375 C480.3203855 36.18791093 480.31547237 38.6012864 480.31061172 41.01491356 C480.31434839 42.76259501 480.31894997 44.51027479 480.32434237 46.25795192 C480.33658572 51.06130674 480.33631033 55.86459198 480.33395362 60.66795886 C480.33354579 65.84804397 480.34458132 71.02810668 480.35406876 76.20818138 C480.3706869 86.35714502 480.37617867 96.50608542 480.37729351 106.65506152 C480.37824357 114.90379657 480.38235175 123.15252394 480.38869476 131.40125656 C480.40630915 154.78333264 480.41553329 178.16539035 480.41403382 201.54747311 C480.41391395 203.4385669 480.41391395 203.4385669 480.41379166 205.36786461 C480.4137099 206.63013147 480.41362813 207.89239833 480.41354389 209.1929157 C480.41273087 229.65304202 480.43187222 250.11309475 480.46006839 270.57319979 C480.48878562 291.57697894 480.50260933 312.58072218 480.50088084 333.58452147 C480.50021655 345.37838548 480.50572587 357.17217234 480.52723694 368.96601868 C480.54543341 379.00698911 480.54980864 389.0478474 480.53621809 399.08882717 C480.52968082 404.21196147 480.52959876 409.33488054 480.54692459 414.45799446 C480.56262655 419.14918008 480.55982105 423.83997928 480.54235633 428.53115531 C480.53928011 430.22695431 480.54294222 431.92278194 480.55407648 433.61854718 C480.653444 449.82772293 480.653444 449.82772293 476.04318619 457.25726891 C475.66491979 457.90653605 475.28665339 458.55580319 474.89692438 459.22474509 C470.71838966 466.12727642 463.64983902 470.12216165 456.04318619 472.25726891 C453.38602788 472.44525199 450.83497328 472.54039718 448.18013382 472.53142357 C447.4067437 472.53666025 446.63335359 472.54189693 445.83652741 472.54729229 C443.25488877 472.56224871 440.67344909 472.56299647 438.09177017 472.56366539 C436.23694908 472.57128953 434.38213114 472.57971746 432.52731705 472.58888817 C427.4964992 472.61080818 422.46574213 472.6196281 417.43488193 472.62471461 C414.29198598 472.62835952 411.14910593 472.63460012 408.00621605 472.641716 C397.04270224 472.66619666 386.0792357 472.67926052 375.11569595 472.68280602 C364.89314188 472.68644569 354.67088723 472.71637555 344.44842476 472.7582106 C335.67121773 472.79287311 326.89411021 472.80835371 318.11683518 472.80905205 C312.87458951 472.8098459 307.63264931 472.81863491 302.39047432 472.84704971 C297.46308762 472.87316287 292.53626124 472.87547344 287.60883713 472.85939407 C285.80001799 472.85757451 283.99116711 472.86431595 282.18241692 472.88021278 C279.71402845 472.90058614 277.247617 472.89017516 274.77925491 472.87199974 C274.06252261 472.88519971 273.34579031 472.89839968 272.60733885 472.91199964 C268.8500196 472.84874621 267.14193356 472.3325183 264.12218189 470.03134823 C262.04318619 467.25726891 262.04318619 467.25726891 261.04318619 462.25726891 C254.44318619 462.25726891 247.84318619 462.25726891 241.04318619 462.25726891 C240.71318619 464.23726891 240.38318619 466.21726891 240.04318619 468.25726891 C237.86647667 470.84211145 236.22702073 472.02779373 232.88693619 472.67523766 C228.53909688 472.94335441 226.60858668 472.68131928 223.04318619 470.00726891 C221.04318619 467.25726891 221.04318619 467.25726891 220.04318619 463.25726891 C213.11318619 462.92726891 206.18318619 462.59726891 199.04318619 462.25726891 C199.04318619 463.90726891 199.04318619 465.55726891 199.04318619 467.25726891 C196.37389322 470.98294272 194.85117814 472.12211214 190.29837799 472.8836813 C188.81040571 472.90978627 187.32179787 472.90847193 185.83377457 472.88545799 C185.01097496 472.89255238 184.18817535 472.89964677 183.34044242 472.90695614 C180.58495649 472.92454987 177.83087861 472.90642455 175.07541275 472.88837242 C173.09914889 472.89351088 171.12288961 472.9007916 169.14664078 472.91005516 C163.77856303 472.92859148 158.41098113 472.91561437 153.04292393 472.89596486 C147.42303064 472.8795864 141.80316897 472.88839057 136.18326187 472.89348412 C126.7409816 472.89800745 117.29889925 472.88212396 107.85666275 472.85419273 C96.94974379 472.82217695 86.04318257 472.82214149 75.13623834 472.8394075 C64.63849812 472.85529201 54.14088868 472.84852421 43.64315414 472.83147049 C39.17923616 472.82460879 34.71542328 472.82562356 30.25150681 472.83301544 C24.98843985 472.84069688 19.72577797 472.82849123 14.46278 472.80116653 C12.5347247 472.79429973 10.60663145 472.79416638 8.67857742 472.80138206 C-9.88051247 472.8628159 -9.88051247 472.8628159 -16.95681381 468.25726891 C-17.60305584 467.87905274 -18.24929787 467.50083658 -18.91512299 467.11115932 C-25.83658879 462.94276561 -29.80324982 455.86206707 -31.95681381 448.25726891 C-32.20981348 444.8048842 -32.20981348 444.8048842 -32.21408272 440.92514992 C-32.21758879 440.20535237 -32.22109487 439.48555483 -32.22470719 438.74394524 C-32.2340131 436.33133735 -32.22909999 433.91897126 -32.22423935 431.50635338 C-32.22797602 429.75938462 -32.23257761 428.01241753 -32.23796999 426.2654531 C-32.25021338 421.46402888 -32.24993795 416.66267427 -32.24758124 411.861238 C-32.24717341 406.68317876 -32.258209 401.50514194 -32.26769638 396.32709312 C-32.28431482 386.18180449 -32.28980631 376.0365391 -32.29092114 365.891238 C-32.29187123 357.64489523 -32.29597962 349.39856012 -32.30232239 341.15221977 C-32.31993729 317.77520936 -32.3291609 294.39821731 -32.32766144 271.02120021 C-32.32758153 269.76073374 -32.32750161 268.50026727 -32.32741928 267.20160484 C-32.32733752 265.93960029 -32.32725576 264.67759574 -32.32717152 263.37734863 C-32.3263586 242.92436438 -32.34549703 222.47145377 -32.37369601 202.01849082 C-32.40241831 181.0203569 -32.41623666 160.0222589 -32.41450846 139.02410483 C-32.41384432 127.23412133 -32.41934709 115.44421501 -32.44086456 103.65424919 C-32.45906775 93.61586919 -32.46343076 83.57760137 -32.44984572 73.53921202 C-32.44331169 68.41797905 -32.44321469 63.29696137 -32.46055222 58.17574883 C-32.4762686 53.48512777 -32.47343386 48.79489295 -32.45598395 44.1042814 C-32.45291091 42.40981049 -32.45655793 40.71531085 -32.4677041 39.02087381 C-32.53248601 28.47185014 -31.81824016 19.9942452 -25.76931381 11.00726891 C-18.19210826 3.5984457 -10.67338032 -0.06045006 0 0 Z " fill="#FEFEFE" transform="translate(31.95681381225586,20.74273109436035)"/>
<path d="M0 0 C0.78733249 -0.00350607 1.57466498 -0.00701215 2.38585603 -0.01062447 C5.02819321 -0.01993982 7.67031005 -0.0150148 10.3126564 -0.01015663 C12.224617 -0.01389282 14.13657608 -0.01849422 16.04853272 -0.02388728 C21.30601822 -0.03613656 26.56344017 -0.03585453 31.82093668 -0.03349853 C37.48979711 -0.03309085 43.15863704 -0.04412485 48.82748795 -0.05361366 C59.93531498 -0.0702353 71.04312079 -0.07572374 82.15095922 -0.07683842 C91.17914776 -0.07778836 100.20732928 -0.08189594 109.23551559 -0.08823967 C130.66104944 -0.10298834 152.08657636 -0.11528906 173.51211548 -0.11424255 C174.5399138 -0.11419582 174.5399138 -0.11419582 175.58847572 -0.11414814 C179.06133 -0.11398192 182.53418428 -0.11378384 186.00703856 -0.11357872 C186.69675656 -0.11353883 187.38647455 -0.11349894 188.09709309 -0.11345784 C189.49187127 -0.11337697 190.88664946 -0.11329337 192.28142764 -0.11320706 C213.9797099 -0.11198167 235.67792963 -0.1269924 257.376194 -0.15435219 C281.75581637 -0.18508031 306.13538724 -0.2022589 330.51503205 -0.20042574 C343.42283991 -0.19976146 356.33057727 -0.20527051 369.23836899 -0.22678185 C380.22828888 -0.24497942 391.21810631 -0.24935265 402.20803472 -0.235763 C407.81532483 -0.22922617 413.4224183 -0.22914214 419.02968979 -0.2464695 C424.16440101 -0.26217338 429.29875922 -0.25936382 434.4334617 -0.24190123 C436.28943879 -0.23882544 438.14544205 -0.24248548 440.00138828 -0.25362138 C450.99654815 -0.31521597 459.9163077 0.13340839 469.29318619 6.44476891 C476.5083483 13.82391198 480.28898062 21.16018033 480.30045509 31.59218121 C480.30396117 32.31227835 480.30746724 33.03237549 480.31107956 33.77429375 C480.3203855 36.18791093 480.31547237 38.6012864 480.31061172 41.01491356 C480.31434839 42.76259501 480.31894997 44.51027479 480.32434237 46.25795192 C480.33658572 51.06130674 480.33631033 55.86459198 480.33395362 60.66795886 C480.33354579 65.84804397 480.34458132 71.02810668 480.35406876 76.20818138 C480.3706869 86.35714502 480.37617867 96.50608542 480.37729351 106.65506152 C480.37824357 114.90379657 480.38235175 123.15252394 480.38869476 131.40125656 C480.40630915 154.78333264 480.41553329 178.16539035 480.41403382 201.54747311 C480.41391395 203.4385669 480.41391395 203.4385669 480.41379166 205.36786461 C480.4137099 206.63013147 480.41362813 207.89239833 480.41354389 209.1929157 C480.41273087 229.65304202 480.43187222 250.11309475 480.46006839 270.57319979 C480.48878562 291.57697894 480.50260933 312.58072218 480.50088084 333.58452147 C480.50021655 345.37838548 480.50572587 357.17217234 480.52723694 368.96601868 C480.54543341 379.00698911 480.54980864 389.0478474 480.53621809 399.08882717 C480.52968082 404.21196147 480.52959876 409.33488054 480.54692459 414.45799446 C480.56262655 419.14918008 480.55982105 423.83997928 480.54235633 428.53115531 C480.53928011 430.22695431 480.54294222 431.92278194 480.55407648 433.61854718 C480.653444 449.82772293 480.653444 449.82772293 476.04318619 457.25726891 C475.66491979 457.90653605 475.28665339 458.55580319 474.89692438 459.22474509 C470.71838966 466.12727642 463.64983902 470.12216165 456.04318619 472.25726891 C453.38602788 472.44525199 450.83497328 472.54039718 448.18013382 472.53142357 C447.4067437 472.53666025 446.63335359 472.54189693 445.83652741 472.54729229 C443.25488877 472.56224871 440.67344909 472.56299647 438.09177017 472.56366539 C436.23694908 472.57128953 434.38213114 472.57971746 432.52731705 472.58888817 C427.4964992 472.61080818 422.46574213 472.6196281 417.43488193 472.62471461 C414.29198598 472.62835952 411.14910593 472.63460012 408.00621605 472.641716 C397.04270224 472.66619666 386.0792357 472.67926052 375.11569595 472.68280602 C364.89314188 472.68644569 354.67088723 472.71637555 344.44842476 472.7582106 C335.67121773 472.79287311 326.89411021 472.80835371 318.11683518 472.80905205 C312.87458951 472.8098459 307.63264931 472.81863491 302.39047432 472.84704971 C297.46308762 472.87316287 292.53626124 472.87547344 287.60883713 472.85939407 C285.80001799 472.85757451 283.99116711 472.86431595 282.18241692 472.88021278 C279.71402845 472.90058614 277.247617 472.89017516 274.77925491 472.87199974 C274.06252261 472.88519971 273.34579031 472.89839968 272.60733885 472.91199964 C268.7350288 472.84681038 267.16059702 472.35333515 264.12218189 469.86728573 C261.87846358 467.05047253 261.04318619 465.84007357 261.04318619 462.25726891 C262.54653411 457.66810158 263.78298291 454.63816217 268.04318619 452.25726891 C270.59101072 451.96983065 272.89223952 451.85354895 275.43794632 451.87872887 C276.18512627 451.87419874 276.93230622 451.86966861 277.70212799 451.8650012 C280.2071856 451.85336874 282.71171011 451.86302742 285.21677017 451.87250328 C287.01218384 451.86839856 288.80759484 451.86293828 290.60300064 451.85622215 C294.47008775 451.84448989 298.33703211 451.8420154 302.20413399 451.8465786 C308.31780043 451.85337984 314.43127854 451.83753483 320.54491043 451.81818199 C333.52349218 451.7802994 346.50205762 451.76752243 359.48068619 451.75726891 C373.48797086 451.74620057 387.49516911 451.73088288 401.50239426 451.68655634 C407.58089125 451.66818098 413.65917359 451.66431461 419.73769176 451.67149162 C423.5182925 451.6730121 427.29878559 451.66223823 431.07935715 451.64811325 C432.83333111 451.64410629 434.58732546 451.64524294 436.34129143 451.65188599 C438.7349389 451.66025583 441.12784 451.65029105 443.52144241 451.63580894 C444.21619327 451.64270288 444.91094412 451.64959682 445.62674803 451.65669966 C449.94001985 451.60582956 452.66870202 450.97957473 456.04318619 448.25726891 C458.6824352 444.57243079 459.41931537 442.04260959 459.42794704 437.53514957 C459.43740416 436.38576468 459.44686127 435.23637978 459.45660496 434.05216503 C459.45175681 432.79474845 459.44690866 431.53733187 459.4419136 430.24181175 C459.44734762 428.89194742 459.45409373 427.54208783 459.46203995 426.19223595 C459.48010005 422.47670528 459.47947618 418.76137398 459.47590314 415.04580973 C459.47531408 410.97989522 459.49209851 406.91404588 459.50669193 402.84816265 C459.53242157 394.95372354 459.54277456 387.05933863 459.54777451 379.16486214 C459.5542194 370.03436053 459.5797569 360.90397824 459.60531998 351.77350426 C459.66337422 327.66395949 459.69543408 303.5543578 459.73068619 279.44476891 C459.83381119 225.59289391 459.93693619 171.74101891 460.04318619 116.25726891 C304.28318619 116.25726891 148.52318619 116.25726891 -11.95681381 116.25726891 C-11.85368881 170.10914391 -11.75056381 223.96101891 -11.64431381 279.44476891 C-11.61941879 296.4709481 -11.59452377 313.4971273 -11.56887436 331.03925133 C-11.53232543 346.25419943 -11.53232543 346.25419943 -11.49180222 361.46913719 C-11.4738098 368.26475966 -11.46400173 375.06033436 -11.45969772 381.85597801 C-11.45470916 389.68828698 -11.43944183 397.52049441 -11.41132997 405.3527558 C-11.3972681 409.36156931 -11.38791946 413.37024045 -11.39177454 417.37908018 C-11.39517026 421.00187638 -11.38489722 424.62436244 -11.36357117 428.24709511 C-11.35578159 430.18210401 -11.36277188 432.11715483 -11.37023258 434.05216503 C-11.36077547 435.20154993 -11.35131836 436.35093483 -11.34157467 437.53514957 C-11.33967607 438.52659936 -11.33777747 439.51804914 -11.33582133 440.53954285 C-10.75558006 444.70024345 -8.88579937 447.32828334 -5.95681381 450.25726891 C-2.15873706 451.69161304 1.89211832 451.39492988 5.89351273 451.38184166 C6.68969531 451.38325181 7.48587789 451.38466196 8.30618721 451.38611484 C10.97692009 451.38976793 13.64759987 451.38643128 16.31833267 451.38324547 C18.23196835 451.38464024 20.14560371 451.38653956 22.05923843 451.38890648 C26.1816565 451.39340369 30.30406461 451.39525957 34.42648506 451.39536858 C40.9433622 451.39650825 47.46018261 451.40934104 53.97703934 451.42493248 C55.62626685 451.42879176 55.62626685 451.42879176 57.30881208 451.43272901 C59.55706346 451.43799549 61.8053148 451.44328098 64.0535661 451.44858503 C79.22662867 451.48371285 94.39962059 451.51024401 109.5727272 451.50775719 C119.80656955 451.50617006 130.04021849 451.52216856 140.2739988 451.55846381 C145.69062927 451.5769468 151.10693671 451.58624604 156.523592 451.57398796 C161.61679336 451.56257327 166.70941562 451.57420339 171.80253983 451.60362244 C173.67261138 451.61027676 175.54273572 451.60837278 177.41278648 451.59732437 C179.96451271 451.58349817 182.51427144 451.60029246 185.06587601 451.62476158 C185.80731824 451.6134062 186.54876047 451.60205082 187.31267065 451.59035134 C191.30000935 451.66479673 192.88500541 452.12381936 195.97926807 454.73430061 C196.66036105 455.56688015 197.34145403 456.39945969 198.04318619 457.25726891 C198.37318619 457.58726891 198.70318619 457.91726891 199.04318619 458.25726891 C199.31662369 460.14789391 199.31662369 460.14789391 199.41818619 462.50726891 C199.46717056 463.27555016 199.51615494 464.04383141 199.56662369 464.83539391 C198.76471732 468.54570694 196.97543024 469.90793581 194.04318619 472.25726891 C191.11044301 472.74784321 188.76088277 472.93072899 185.83377457 472.88545799 C185.01097496 472.89255238 184.18817535 472.89964677 183.34044242 472.90695614 C180.58495649 472.92454987 177.83087861 472.90642455 175.07541275 472.88837242 C173.09914889 472.89351088 171.12288961 472.9007916 169.14664078 472.91005516 C163.77856303 472.92859148 158.41098113 472.91561437 153.04292393 472.89596486 C147.42303064 472.8795864 141.80316897 472.88839057 136.18326187 472.89348412 C126.7409816 472.89800745 117.29889925 472.88212396 107.85666275 472.85419273 C96.94974379 472.82217695 86.04318257 472.82214149 75.13623834 472.8394075 C64.63849812 472.85529201 54.14088868 472.84852421 43.64315414 472.83147049 C39.17923616 472.82460879 34.71542328 472.82562356 30.25150681 472.83301544 C24.98843985 472.84069688 19.72577797 472.82849123 14.46278 472.80116653 C12.5347247 472.79429973 10.60663145 472.79416638 8.67857742 472.80138206 C-9.88051247 472.8628159 -9.88051247 472.8628159 -16.95681381 468.25726891 C-17.60305584 467.87905274 -18.24929787 467.50083658 -18.91512299 467.11115932 C-25.83658879 462.94276561 -29.80324982 455.86206707 -31.95681381 448.25726891 C-32.20981348 444.8048842 -32.20981348 444.8048842 -32.21408272 440.92514992 C-32.21758879 440.20535237 -32.22109487 439.48555483 -32.22470719 438.74394524 C-32.2340131 436.33133735 -32.22909999 433.91897126 -32.22423935 431.50635338 C-32.22797602 429.75938462 -32.23257761 428.01241753 -32.23796999 426.2654531 C-32.25021338 421.46402888 -32.24993795 416.66267427 -32.24758124 411.861238 C-32.24717341 406.68317876 -32.258209 401.50514194 -32.26769638 396.32709312 C-32.28431482 386.18180449 -32.28980631 376.0365391 -32.29092114 365.891238 C-32.29187123 357.64489523 -32.29597962 349.39856012 -32.30232239 341.15221977 C-32.31993729 317.77520936 -32.3291609 294.39821731 -32.32766144 271.02120021 C-32.32758153 269.76073374 -32.32750161 268.50026727 -32.32741928 267.20160484 C-32.32733752 265.93960029 -32.32725576 264.67759574 -32.32717152 263.37734863 C-32.3263586 242.92436438 -32.34549703 222.47145377 -32.37369601 202.01849082 C-32.40241831 181.0203569 -32.41623666 160.0222589 -32.41450846 139.02410483 C-32.41384432 127.23412133 -32.41934709 115.44421501 -32.44086456 103.65424919 C-32.45906775 93.61586919 -32.46343076 83.57760137 -32.44984572 73.53921202 C-32.44331169 68.41797905 -32.44321469 63.29696137 -32.46055222 58.17574883 C-32.4762686 53.48512777 -32.47343386 48.79489295 -32.45598395 44.1042814 C-32.45291091 42.40981049 -32.45655793 40.71531085 -32.4677041 39.02087381 C-32.53248601 28.47185014 -31.81824016 19.9942452 -25.76931381 11.00726891 C-18.19210826 3.5984457 -10.67338032 -0.06045006 0 0 Z " fill="#000000" transform="translate(31.95681381225586,20.74273109436035)"/>
<path d="M0 0 C1.1582725 -0.00654048 1.1582725 -0.00654048 2.33994445 -0.0132131 C4.93683175 -0.02419309 7.53319075 -0.01373466 10.1300745 -0.00342751 C12.00690056 -0.00688299 13.88372459 -0.01164681 15.76054436 -0.01760924 C20.925435 -0.03016401 26.09015992 -0.0239285 31.25505126 -0.01465058 C36.82228555 -0.0078787 42.38949082 -0.0183321 47.9567194 -0.02659035 C58.86617098 -0.03995004 69.77556074 -0.03703991 80.68501478 -0.02835242 C89.54974346 -0.02158473 98.41445478 -0.0206552 107.2791853 -0.02392387 C108.53956487 -0.02438357 109.79994445 -0.02484327 111.09851735 -0.0253169 C113.6587503 -0.02627605 116.21898324 -0.02724869 118.77921618 -0.02823468 C142.11769477 -0.03655104 165.45613367 -0.02791775 188.79460457 -0.01220688 C210.10330978 0.00202852 231.4119612 0.00075784 252.72066593 -0.01358986 C276.6552671 -0.02965173 300.58983465 -0.03596946 324.52444321 -0.02675307 C327.07570652 -0.0257974 329.62696983 -0.02485428 332.17823315 -0.02392387 C334.06125959 -0.02322963 334.06125959 -0.02322963 335.98232697 -0.02252137 C344.83819804 -0.01992869 353.69405005 -0.0243085 362.54991817 -0.03136253 C373.33977973 -0.03976791 384.1295758 -0.03751771 394.91942983 -0.0215203 C400.42694425 -0.0136244 405.9343494 -0.01056845 411.44186306 -0.02046776 C416.48075577 -0.02938791 421.51943761 -0.02452605 426.55831111 -0.0085351 C428.3839608 -0.0051759 430.20962821 -0.00690682 432.03526657 -0.01416247 C434.51223053 -0.02325372 436.98846736 -0.01396032 439.46539307 0 C440.17817892 -0.0070235 440.89096478 -0.014047 441.62535021 -0.02128333 C446.24198599 0.03090377 449.43865391 0.82027506 453.2956171 3.37752342 C465.82558119 24.2607969 456.2956171 52.02365081 456.2956171 76.37752342 C300.5356171 76.37752342 144.7756171 76.37752342 -15.7043829 76.37752342 C-15.7043829 8.37752342 -15.7043829 8.37752342 -12.7043829 3.37752342 C-8.69465116 0.12588874 -4.97639576 -0.04887482 0 0 Z " fill="#71D6FD" transform="translate(35.70438289642334,40.62247657775879)"/>
<path d="M0 0 C0.83549881 -0.01921509 1.67099762 -0.03843018 2.53181458 -0.05822754 C3.43485825 -0.06672729 4.33790192 -0.07522705 5.26831055 -0.08398438 C6.20748825 -0.09538452 7.14666595 -0.10678467 8.11430359 -0.11853027 C10.10903421 -0.13743914 12.10382744 -0.15050179 14.09863281 -0.15820312 C17.10622982 -0.17742253 20.11097631 -0.23936255 23.11791992 -0.30273438 C37.17355802 -0.45864362 48.25217314 0.79484443 58.9675293 10.75976562 C66.52636729 19.17405652 69.24022931 27.38175931 68.7800293 38.69726562 C67.92575573 47.29085086 65.35452051 55.42120749 58.8425293 61.32226562 C60.52027222 64.80979606 62.51273894 67.98725175 64.6237793 71.22460938 C69.31867976 79.30525537 69.73970501 88.63208504 67.7175293 97.63476562 C66.19802976 102.83665593 64.19255181 107.06782931 60.8425293 111.32226562 C60.38491211 111.92683594 59.92729492 112.53140625 59.45581055 113.15429688 C53.20245699 120.38424469 44.03928938 124.14611929 34.65869141 124.86865234 C29.85768325 125.0838524 25.06656218 125.07644234 20.26220703 124.99462891 C17.25340954 124.94684285 14.24810204 124.95361945 11.23901367 124.96679688 C9.3138624 124.95565849 7.3887259 124.9414483 5.46362305 124.92382812 C4.1245414 124.92656235 4.1245414 124.92656235 2.75840759 124.92935181 C-1.24904835 124.83789499 -3.61193037 124.63846512 -7.13378906 122.59716797 C-11.83896547 117.30788895 -11.45426769 111.75898574 -11.44799805 105.02758789 C-11.45471527 103.99286346 -11.4614325 102.95813904 -11.46835327 101.89205933 C-11.48733945 98.47421457 -11.4912576 95.05656607 -11.4934082 91.63867188 C-11.49983494 89.26122456 -11.5065632 86.88377804 -11.51358032 84.5063324 C-11.52555411 79.52397833 -11.52926096 74.54169361 -11.52807617 69.55932617 C-11.52787281 63.17576619 -11.55519297 56.79265052 -11.58962059 50.4091959 C-11.6118577 45.49954689 -11.61591471 40.59000542 -11.61485672 35.6803112 C-11.61721679 33.32678634 -11.62606303 30.97325868 -11.64152145 28.6197834 C-11.66111916 25.32831798 -11.65536749 22.0378189 -11.64331055 18.74633789 C-11.65454956 17.77523575 -11.66578857 16.80413361 -11.67736816 15.80360413 C-11.62472682 10.14766113 -11.02626183 6.75844479 -7.1574707 2.32226562 C-4.11080887 0.29115774 -3.43864813 0.06408344 0 0 Z " fill="#020202" transform="translate(109.157470703125,214.677734375)"/>
<path d="M0 0 C9.74997812 5.74812143 15.79918581 13.79631633 18.96476746 24.5952301 C20.1490489 29.94600405 20.08500261 35.29018625 20.0859375 40.75 C20.09735779 42.61358406 20.09735779 42.61358406 20.10900879 44.51481628 C20.1197651 47.13103232 20.12268121 49.74729114 20.11816406 52.36352539 C20.11719285 56.33358519 20.15884961 60.30170339 20.203125 64.27148438 C20.20833386 66.82681893 20.21102016 69.38216013 20.2109375 71.9375 C20.22733276 73.10771194 20.24372803 74.27792389 20.26062012 75.4835968 C20.16070035 87.59524641 16.35065275 98.89666383 7.6171875 107.54296875 C-1.5696817 114.98224852 -11.36443622 117.12689239 -23.09765625 116.3671875 C-32.46044449 114.90286517 -40.01947931 109.9235019 -45.91796875 102.609375 C-51.03508952 95.39082331 -54.40195658 86.51143661 -53.3828125 77.54296875 C-51.71518928 74.04890106 -50.64275228 72.71626194 -47.3828125 70.54296875 C-42.28024064 69.96687193 -42.28024064 69.96687193 -39.3828125 70.54296875 C-36.4453125 72.98046875 -36.4453125 72.98046875 -34.3828125 75.54296875 C-33.8878125 76.03796875 -33.8878125 76.03796875 -33.3828125 76.54296875 C-33.08649485 78.10083678 -32.82076231 79.66457225 -32.5703125 81.23046875 C-31.42194608 87.09803441 -29.70318449 90.96089694 -24.6328125 94.41796875 C-19.25719317 96.27876006 -15.23380593 96.3656325 -10.0078125 94.04296875 C-9.1415625 93.54796875 -8.2753125 93.05296875 -7.3828125 92.54296875 C-6.7228125 92.54296875 -6.0628125 92.54296875 -5.3828125 92.54296875 C-4.69661219 91.21958243 -4.03494789 89.88346927 -3.3828125 88.54296875 C-3.0425 87.87265625 -2.7021875 87.20234375 -2.3515625 86.51171875 C-0.97076839 82.28025294 -0.91623207 78.15631548 -0.7578125 73.73046875 C-0.71914063 72.84681641 -0.68046875 71.96316406 -0.640625 71.05273438 C-0.54680466 68.88313903 -0.46373924 66.71308328 -0.3828125 64.54296875 C-1.48753906 65.02378906 -2.59226562 65.50460937 -3.73046875 66 C-12.36193575 69.64644863 -21.50653944 69.33610762 -30.3828125 66.54296875 C-39.98166717 62.18115736 -46.94882943 55.06782128 -51.3828125 45.54296875 C-54.57445674 35.75988533 -54.14281373 25.57036924 -49.8203125 16.23046875 C-39.7530429 -1.89539907 -18.86237632 -9.12448285 0 0 Z " fill="#030303" transform="translate(394.3828125,270.45703125)"/>
<path d="M0 0 C1.05288407 -0.00445784 2.10576813 -0.00891569 3.19055778 -0.01350862 C4.35638788 -0.01332426 5.52221799 -0.01313989 6.72337627 -0.01294994 C7.95479011 -0.01662663 9.18620394 -0.02030332 10.45493335 -0.02409142 C13.88405028 -0.03323081 17.31311931 -0.03783069 20.74224389 -0.04048073 C24.43627966 -0.04437917 28.13030152 -0.05395778 31.82432842 -0.0626936 C40.75054783 -0.08247045 49.6767684 -0.09252549 58.60300425 -0.10142139 C62.80382123 -0.10580205 67.00463694 -0.11116941 71.20545292 -0.11641026 C85.16508536 -0.13342331 99.124717 -0.14791848 113.08435822 -0.155159 C116.70822749 -0.15706897 120.33209675 -0.15898929 123.955966 -0.16094494 C125.30705065 -0.16167055 125.30705065 -0.16167055 126.68542995 -0.16241082 C141.28338091 -0.17071483 155.88125003 -0.19605765 170.47916523 -0.22852562 C185.45756872 -0.26156899 200.43593058 -0.27960526 215.41437072 -0.28280324 C223.82787759 -0.2849708 232.2412651 -0.29375539 240.65473652 -0.31926441 C247.81860459 -0.34093424 254.98232431 -0.34904022 262.14622144 -0.33929763 C265.80257687 -0.33474213 269.45862596 -0.33671105 273.11493969 -0.35605907 C277.07626245 -0.37684044 281.03715952 -0.36674012 284.99852276 -0.35352612 C286.1576607 -0.36449536 287.31679864 -0.37546461 288.51106197 -0.38676625 C296.28431325 -0.32388233 296.28431325 -0.32388233 300.24223137 2.03970528 C303.09561994 5.34309272 303.38419955 7.71651792 303.34439373 12.09515858 C302.88887532 15.26556675 301.29826841 16.95346128 299.05142498 19.13422108 C296.55986091 20.38000311 294.89161333 20.26298454 292.10284996 20.26844215 C291.04996589 20.2729 289.99708183 20.27735784 288.91229218 20.28195077 C287.74646208 20.28176641 286.58063197 20.28158205 285.37947369 20.2813921 C284.14805985 20.28506879 282.91664602 20.28874547 281.64791662 20.29253358 C278.21879968 20.30167296 274.78973065 20.30627284 271.36060607 20.30892289 C267.6665703 20.31282133 263.97254844 20.32239993 260.27852154 20.33113575 C251.35230213 20.3509126 242.42608156 20.36096765 233.49984571 20.36986354 C229.29902873 20.3742442 225.09821302 20.37961156 220.89739704 20.38485241 C206.9377646 20.40186546 192.97813296 20.41636063 179.01849174 20.42360115 C175.39462247 20.42551112 171.77075321 20.42743145 168.14688396 20.42938709 C166.79579931 20.4301127 166.79579931 20.4301127 165.41742001 20.43085297 C150.81946905 20.43915699 136.22159993 20.46449981 121.62368473 20.49696777 C106.64528124 20.53001114 91.66691938 20.54804742 76.68847924 20.55124539 C68.27497237 20.55341296 59.86158486 20.56219755 51.44811344 20.58770657 C44.28424537 20.60937639 37.12052565 20.61748238 29.95662852 20.60773978 C26.30027309 20.60318429 22.644224 20.60515321 18.98791027 20.62450123 C15.02658751 20.6452826 11.06569044 20.63518228 7.1043272 20.62196827 C5.36562029 20.63842214 5.36562029 20.63842214 3.59178799 20.65520841 C-4.18146329 20.59232449 -4.18146329 20.59232449 -8.13938141 18.22873688 C-10.99276998 14.92534944 -11.28134959 12.55192423 -11.24154377 8.17328358 C-10.78602535 5.00287541 -9.19541845 3.31498088 -6.94857502 1.13422108 C-4.45701095 -0.11156096 -2.78876337 0.00545761 0 0 Z " fill="#000000" transform="translate(109.94857501983643,416.86577892303467)"/>
<path d="M0 0 C0.75175507 -0.00043808 1.50351013 -0.00087616 2.27804565 -0.00132751 C4.75098069 0.00075452 7.22322902 0.02405722 9.69604492 0.04760742 C11.415254 0.05320547 13.13446789 0.05747459 14.85368347 0.06047058 C19.36979478 0.07190291 23.88561479 0.10135612 28.40161133 0.13458252 C33.01338765 0.16531823 37.62521123 0.17898339 42.23706055 0.1940918 C51.27950595 0.22622744 60.32173555 0.27740423 69.36401367 0.34057617 C69.0405899 1.18588898 68.71716614 2.03120178 68.38394165 2.90213013 C67.29993428 6.5566047 67.086983 9.55036699 67.04516602 13.35571289 C67.03501276 14.04037691 67.0248595 14.72504093 67.01439857 15.43045235 C66.98398148 17.62705138 66.96666998 19.82352231 66.94995117 22.02026367 C66.93299857 23.38428843 66.91517995 24.74830271 66.89648438 26.11230469 C66.83351675 31.14660837 66.7872615 36.1811099 66.73901367 41.21557617 C66.61526367 52.47682617 66.49151367 63.73807617 66.36401367 75.34057617 C39.30401367 75.34057617 12.24401367 75.34057617 -15.63598633 75.34057617 C-15.69786133 64.38870117 -15.75973633 53.43682617 -15.82348633 42.15307617 C-15.86445435 36.97454956 -15.86445435 36.97454956 -15.90625 31.69140625 C-15.91501158 28.95597687 -15.92265629 26.22054358 -15.92895508 23.48510742 C-15.9367952 22.77754807 -15.94463531 22.06998871 -15.95271301 21.34098816 C-15.97475033 19.24664524 -15.97770187 17.15303566 -15.9765625 15.05859375 C-15.98322433 13.87944901 -15.98988617 12.70030426 -15.99674988 11.48542786 C-15.46887821 6.88385958 -14.00691317 4.45159184 -10.42573547 1.54936218 C-6.90106359 0.02213739 -3.77039129 -0.05792739 0 0 Z " fill="#FEFEFE" transform="translate(35.635986328125,40.659423828125)"/>
<path d="M0 0 C0.81830919 -0.00709439 1.63661838 -0.01418877 2.47972482 -0.02149814 C5.21380741 -0.03905974 7.94646491 -0.02098334 10.68052673 -0.00291443 C12.64372402 -0.00805391 14.60691671 -0.01533541 16.57009888 -0.02459717 C21.89652946 -0.04311431 27.2224596 -0.03017091 32.54886937 -0.01050687 C38.12258187 0.00587591 43.69626258 -0.00293265 49.26998901 -0.00802612 C58.62892148 -0.01254711 67.98765408 0.0033241 77.34654236 0.03126526 C88.16892497 0.06332644 98.99094728 0.06329776 109.81335551 0.04605049 C120.22301254 0.03019169 130.6325374 0.03691422 141.04218864 0.0539875 C145.47312879 0.06086265 149.90396314 0.05982079 154.33490181 0.05244255 C159.55118748 0.04478632 164.76706263 0.05688442 169.98327827 0.08429146 C171.8985014 0.09118294 173.81376281 0.09126512 175.72898483 0.08407593 C178.34167391 0.07539808 180.95309118 0.09130833 183.56567383 0.11352539 C184.32520656 0.10528462 185.0847393 0.09704386 185.86728817 0.08855337 C190.76005851 0.16545076 193.28968378 1.13180557 196.71934509 4.62818909 C198.32781691 7.84513272 198.33243658 11.1495613 197.71934509 14.62818909 C195.54360093 17.31924107 193.80868653 19.08351837 190.71934509 20.62818909 C188.15087215 20.73029827 185.609256 20.771573 183.04032898 20.76863098 C181.83742607 20.77308766 181.83742607 20.77308766 180.6102221 20.77763438 C177.90797925 20.78634478 175.20578058 20.78783161 172.50352478 20.7893219 C170.57210189 20.79394846 168.64067993 20.7989729 166.70925903 20.80436707 C161.45087819 20.8175097 156.19251012 20.82393979 150.93411541 20.82837772 C147.65053064 20.83130578 144.36694939 20.83541011 141.08336639 20.8398819 C130.81470434 20.85356248 120.54605029 20.86322607 110.27737975 20.86708379 C98.41490322 20.8715644 86.55254192 20.88911013 74.69010043 20.91808438 C65.52740706 20.9396891 56.36474614 20.94978744 47.20202756 20.95112491 C41.72670394 20.95217391 36.25148856 20.95810189 30.77619171 20.97594452 C25.62489976 20.99240398 20.47379764 20.994591 15.32248878 20.98580551 C13.43185989 20.98503397 11.54122088 20.98939328 9.6506176 20.99926376 C7.06895021 21.01195141 4.48795837 21.00612386 1.90629578 20.99568176 C1.15862025 21.00373817 0.41094472 21.01179457 -0.35938764 21.02009511 C-5.06441194 20.97560735 -8.30583047 20.15992362 -12.28065491 17.62818909 C-14.27853579 14.63136777 -14.64000719 13.68733762 -14.78065491 10.25318909 C-14.83221741 9.50295471 -14.88377991 8.75272034 -14.93690491 7.97975159 C-12.96363624 0.90887221 -6.37188478 -0.09958497 0 0 Z " fill="#000101" transform="translate(256.28065490722656,68.37181091308594)"/>
<path d="M0 0 C1.29250873 0.71199617 2.56688233 1.45882746 3.8125 2.25 C4.84375 2.848125 5.875 3.44625 6.9375 4.0625 C15.36113898 10.47179053 19.46278536 17.20085608 22.8125 27.25 C23.8012975 39.71533242 21.73396272 48.57065953 13.72265625 58.21484375 C7.6506082 64.68424463 0.03705172 69.53760495 -8.91796875 70.5625 C-11.71207052 70.62555448 -14.40465752 70.50189522 -17.1875 70.25 C-18.0228125 70.17910156 -18.858125 70.10820312 -19.71875 70.03515625 C-28.77876267 68.75930004 -36.36210237 63.90622766 -42.125 56.875 C-43.17971489 55.35631198 -44.20296181 53.81509468 -45.1875 52.25 C-45.8371875 51.28900391 -45.8371875 51.28900391 -46.5 50.30859375 C-50.95301397 42.40758633 -50.65359878 30.90495242 -48.421875 22.296875 C-47.49390213 20.13160497 -46.46369733 18.22633336 -45.1875 16.25 C-44.61 15.21875 -44.0325 14.1875 -43.4375 13.125 C-33.41243799 0.31519855 -15.72839283 -6.87948571 0 0 Z " fill="#030303" transform="translate(302.1875,268.75)"/>
<path d="M0 0 C4.35085725 0.36257144 5.74689899 1.2235961 8.75 4.3125 C11.37810898 8.10907088 11.02854406 12.22030365 11.00537109 16.65771484 C11.00899155 17.49722183 11.012612 18.33672882 11.01634216 19.20167542 C11.02322913 21.02246388 11.02574291 22.84327295 11.02439499 24.66407394 C11.02342934 27.54780778 11.03637668 30.4311693 11.05337524 33.31484985 C11.09963565 41.51293047 11.12425299 49.71097304 11.13085938 57.90917969 C11.13587684 62.92601194 11.16013873 67.94245548 11.19618607 72.95915604 C11.20597856 74.86885875 11.20831902 76.77861497 11.20301437 78.68833542 C11.19593583 81.36214422 11.21324187 84.03479653 11.23583984 86.70849609 C11.22766739 87.49415451 11.21949493 88.27981293 11.21107483 89.08927917 C11.28872083 94.26332615 12.36217278 97.1889947 15.75 101.3125 C18.48033157 103.15074304 20.96472048 103.59332586 24.1875 104.0625 C27.45821324 104.76529789 29.53315524 105.51037798 31.875 107.9375 C33.92216028 111.6223885 34.36148406 113.3668573 33.5078125 117.41015625 C32.12859447 120.87242006 30.07293165 122.84987086 26.75 124.3125 C19.60500741 125.70214572 12.96360005 123.88652421 6.75 120.3125 C-1.48475646 114.40992274 -6.07263812 107.84458564 -9.25 98.3125 C-9.36722836 95.40289809 -9.42813979 92.51638207 -9.44287109 89.60595703 C-9.45104858 88.71622192 -9.45922607 87.82648682 -9.46765137 86.90979004 C-9.49247943 83.96330437 -9.50901284 81.01686671 -9.5234375 78.0703125 C-9.52876118 77.06430874 -9.53408485 76.05830498 -9.53956985 75.02181625 C-9.56628739 69.69928499 -9.58566867 64.3767771 -9.60009766 59.05419922 C-9.61676201 53.5537423 -9.66155891 48.05388261 -9.7124691 42.55365181 C-9.74609683 38.3260325 -9.75767004 34.09855594 -9.76332474 29.87081528 C-9.77004721 27.8429901 -9.78529502 25.81517463 -9.80921555 23.7874794 C-9.84078028 20.95043172 -9.84091723 18.11500868 -9.83349609 15.27783203 C-9.84990143 14.4402536 -9.86630676 13.60267517 -9.88320923 12.73971558 C-9.83633611 8.36349168 -9.66786717 6.81885086 -6.77603149 3.31466675 C-5.9424411 2.65395172 -5.10885071 1.99323669 -4.25 1.3125 C-3.25 0.3125 -3.25 0.3125 0 0 Z " fill="#040404" transform="translate(206.25,214.6875)"/>
<path d="M0 0 C4.49625 -0.061875 8.9925 -0.12375 13.625 -0.1875 C15.03217285 -0.21481201 16.4393457 -0.24212402 17.88916016 -0.27026367 C19.01112793 -0.27775635 20.1330957 -0.28524902 21.2890625 -0.29296875 C23.00150146 -0.31653442 23.00150146 -0.31653442 24.74853516 -0.34057617 C29.07844642 0.11296236 32.44775101 1.55098847 35.64453125 4.53515625 C39.83364552 10.01322875 40.62152402 13.18625519 40 20 C38.17465409 25.27322153 35.39280797 27.79691086 31 31 C27.64264863 32.11911712 25.11794614 32.11365586 21.58203125 32.09765625 C19.88784058 32.09390991 19.88784058 32.09390991 18.15942383 32.09008789 C16.00769653 32.07643188 16.00769653 32.07643188 13.8125 32.0625 C9.254375 32.041875 4.69625 32.02125 0 32 C0 21.44 0 10.88 0 0 Z " fill="#FAFAFA" transform="translate(118,287)"/>
<path d="M0 0 C4.49625 -0.061875 8.9925 -0.12375 13.625 -0.1875 C15.03217285 -0.21481201 16.4393457 -0.24212402 17.88916016 -0.27026367 C19.01112793 -0.27775635 20.1330957 -0.28524902 21.2890625 -0.29296875 C23.00150146 -0.31653442 23.00150146 -0.31653442 24.74853516 -0.34057617 C29.07844642 0.11296236 32.44775101 1.55098847 35.64453125 4.53515625 C39.83364552 10.01322875 40.62152402 13.18625519 40 20 C38.17465409 25.27322153 35.39280797 27.79691086 31 31 C27.64264863 32.11911712 25.11794614 32.11365586 21.58203125 32.09765625 C19.88784058 32.09390991 19.88784058 32.09390991 18.15942383 32.09008789 C16.00769653 32.07643188 16.00769653 32.07643188 13.8125 32.0625 C9.254375 32.041875 4.69625 32.02125 0 32 C0 21.44 0 10.88 0 0 Z " fill="#FAFAFA" transform="translate(118,235)"/>
<path d="M0 0 C4.12593192 2.87855716 7.06537651 6.00862953 8.6875 10.875 C9.2689719 16.80601336 8.21431767 21.12621452 4.6875 25.875 C0.93938982 29.37774857 -2.79719115 31.16878234 -7.9375 31.4375 C-12.32569484 31.16559808 -14.94958361 29.76867224 -18.3125 26.875 C-22.93409984 21.62885964 -23.67090972 18.52732623 -23.58984375 11.63671875 C-23.06550755 6.41551177 -20.4328382 3.88863932 -16.6875 0.5 C-11.07455999 -2.20252667 -5.84833338 -1.98622643 0 0 Z " fill="#FBFBFB" transform="translate(296.3125,288.125)"/>
<path d="M0 0 C5.36787898 1.88869816 8.45991584 4.91983169 11 10 C11.51421665 15.08315807 11.80734489 20.26182313 9.5 24.9375 C5.97363148 29.25730144 2.44023624 31.2932848 -3.015625 32.4140625 C-7.82636226 32.7739208 -11.31264735 31.35004496 -15.234375 28.6171875 C-19.26733204 24.92328437 -20.75307544 20.75933747 -21.5 15.4375 C-20.69016127 9.86985873 -18.52483326 6.37961105 -14.375 2.625 C-9.65477721 -0.60462612 -5.61486917 -0.47510431 0 0 Z " fill="#FBFBFB" transform="translate(382,287)"/>
<path d="M0 0 C3.09220451 2.03953914 4.56722098 3.5921953 5.6640625 7.16015625 C6.37222777 11.31889153 6.41468791 13.31362002 4.1875 17 C0.61621733 20.26517273 -2.03416877 20.40068167 -6.73828125 20.34765625 C-9 20 -9 20 -12 17.8125 C-14.07916606 14.88867272 -15 13.56483292 -15 10 C-13.85727877 6.51169309 -12.73075059 3.83900994 -10.3125 1.0625 C-6.85912166 -0.52418734 -3.67402491 -0.75084239 0 0 Z " fill="#040404" transform="translate(267,473)"/>
<path d="M0 0 C3.18628626 0.96375325 4.8637235 3.04624075 6.8984375 5.57421875 C7.2284375 5.90421875 7.5584375 6.23421875 7.8984375 6.57421875 C8.19166616 9.50650538 8.39847997 11.71913758 7.8984375 14.57421875 C5.4609375 17.51171875 5.4609375 17.51171875 2.8984375 19.57421875 C2.5684375 19.90421875 2.2384375 20.23421875 1.8984375 20.57421875 C-1.35721022 20.95723613 -3.96324284 21.25064817 -6.86328125 19.52734375 C-10.11658197 16.84908166 -11.86143281 15.04930116 -12.5390625 10.88671875 C-12.00125161 6.81472204 -10.72700813 4.89650134 -7.94921875 1.94140625 C-5.27807113 -0.03513005 -3.26573441 -0.28152883 0 0 Z " fill="#04080A" transform="translate(168.1015625,68.42578125)"/>
<path d="M0 0 C2.9375 2.4375 2.9375 2.4375 5 5 C5.33 5.33 5.66 5.66 6 6 C6.69754768 12.97547684 6.69754768 12.97547684 4 16.9375 C0.31882498 19.46830783 -2.52244867 20.57718435 -7 20 C-11.09981368 17.61465386 -12.65698939 16.10974021 -14.0625 11.5625 C-13.99118687 7.49765169 -13.20649268 5.38854234 -11 2 C-7.33476845 -0.4434877 -4.26029643 -0.84707648 0 0 Z " fill="#090909" transform="translate(71,69)"/>
<path d="M0 0 C4.92293178 0.4842228 6.64569948 1.59028719 9.8125 5.375 C10.61446235 8.5427513 10.60481409 11.20574363 9.8125 14.375 C7.375 17.375 7.375 17.375 4.8125 19.375 C4.4825 19.705 4.1525 20.035 3.8125 20.375 C-0.88388725 20.21845376 -3.2884446 19.99310059 -7.1875 17.3125 C-9.43347013 14.01373137 -9.92057 12.21916218 -9.69140625 8.30859375 C-8.84492469 5.06046682 -6.72660265 3.41866799 -4.1875 1.375 C-3.1875 0.375 -3.1875 0.375 0 0 Z " fill="#020506" transform="translate(116.1875,68.625)"/>
</svg>
